<svg width="65" height="64" viewBox="0 0 65 64" fill="none" xmlns="http://www.w3.org/2000/svg">
<rect x="65" y="64" width="64" height="64" rx="16" transform="rotate(-180 65 64)" fill="#E7E8EC"/>
<path d="M48.355 46.5377C52.9254 44.7606 53.8586 36.1915 50.4394 27.3982C47.0202 18.6049 40.5434 12.9172 35.973 14.6943C31.4027 16.4715 30.4694 25.0405 33.8886 33.8338C37.3078 42.6271 43.7846 48.3149 48.355 46.5377Z" stroke="#103E13" stroke-linecap="round" stroke-linejoin="round"/>
<path d="M46.026 46.831L19.098 45.384C17.6135 45.3835 16.1899 44.7935 15.1402 43.7438C14.0905 42.6941 13.5005 41.2705 13.5 39.786C13.5 38.242 14.272 36.697 15.237 35.636L34.444 15.657" stroke="#103E13" stroke-linecap="round" stroke-linejoin="round"/>
<path d="M28.46 45.866C26.53 45.673 23.924 42.681 22.283 38.435C20.643 34.285 20.546 30.424 21.703 28.88M28.942 46.06C28.942 48.086 27.302 49.63 25.178 49.63C23.054 49.63 21.414 48.086 21.414 46.156V45.673M48.052 28.88L38.497 37.18C41.297 42.102 44.867 44.998 47.377 44.033C50.465 42.778 50.755 36.022 48.052 28.88ZM46.412 25.116L36.76 33.512C36.6483 33.2606 36.5514 33.0028 36.47 32.74C33.575 25.309 33.865 18.36 36.953 17.105C39.656 16.14 43.516 19.616 46.412 25.116Z" stroke="#103E13" stroke-linecap="round" stroke-linejoin="round"/>
</svg>
