<svg width="48" height="48" viewBox="0 0 48 48" fill="none" xmlns="http://www.w3.org/2000/svg">
<path d="M19.5 30.375H8.99998C8.70161 30.375 8.41546 30.4935 8.20448 30.7045C7.99351 30.9155 7.87498 31.2016 7.87498 31.5V33.75C7.87498 35.4408 8.54663 37.0623 9.74217 38.2578C10.9377 39.4534 12.5592 40.125 14.25 40.125C15.9407 40.125 17.5622 39.4534 18.7578 38.2578C19.9533 37.0623 20.625 35.4408 20.625 33.75V31.5C20.625 31.2016 20.5065 30.9155 20.2955 30.7045C20.0845 30.4935 19.7983 30.375 19.5 30.375ZM18.375 33.75C18.375 34.844 17.9404 35.8932 17.1668 36.6668C16.3932 37.4404 15.344 37.875 14.25 37.875C13.156 37.875 12.1068 37.4404 11.3332 36.6668C10.5596 35.8932 10.125 34.844 10.125 33.75V32.625H18.375V33.75ZM14.25 3.375C12.225 3.375 10.23 5.23313 8.62498 8.60625C6.06373 14.01 5.1956 22.0181 8.62498 26.2125C8.73063 26.3416 8.86367 26.4456 9.01447 26.5169C9.16526 26.5883 9.33003 26.6252 9.49685 26.625H18.9712C19.138 26.6252 19.3028 26.5883 19.4536 26.5169C19.6044 26.4456 19.7375 26.3416 19.8431 26.2125C23.2781 22.0181 22.41 14.01 19.8431 8.60625C18.2644 5.23313 16.2694 3.375 14.25 3.375ZM18.4181 24.375H10.0762C8.18435 21.5287 7.88435 15.4406 10.665 9.5625C12.045 6.65812 13.4569 5.625 14.25 5.625C15.0431 5.625 16.4531 6.65812 17.8312 9.5625C20.61 15.4406 20.31 21.5287 18.4181 24.375ZM39 34.875H28.5C28.2016 34.875 27.9155 34.9935 27.7045 35.2045C27.4935 35.4155 27.375 35.7016 27.375 36V38.25C27.375 39.9408 28.0466 41.5623 29.2422 42.7578C30.4377 43.9534 32.0592 44.625 33.75 44.625C35.4407 44.625 37.0622 43.9534 38.2578 42.7578C39.4533 41.5623 40.125 39.9408 40.125 38.25V36C40.125 35.7016 40.0065 35.4155 39.7955 35.2045C39.5845 34.9935 39.2983 34.875 39 34.875ZM37.875 38.25C37.875 39.344 37.4404 40.3932 36.6668 41.1668C35.8932 41.9404 34.844 42.375 33.75 42.375C32.656 42.375 31.6068 41.9404 30.8332 41.1668C30.0596 40.3932 29.625 39.344 29.625 38.25V37.125H37.875V38.25ZM29.0119 31.125H38.4862C38.653 31.1252 38.8178 31.0883 38.9686 31.0169C39.1194 30.9456 39.2525 30.8416 39.3581 30.7125C42.7931 26.5181 41.925 18.51 39.3581 13.1063C37.77 9.73313 35.775 7.875 33.75 7.875C31.725 7.875 29.7319 9.73313 28.125 13.1063C25.5637 18.51 24.6956 26.5181 28.125 30.7125C28.2326 30.8441 28.3687 30.9496 28.5229 31.021C28.6772 31.0924 28.8456 31.128 29.0156 31.125H29.0119ZM30.1687 14.0625C31.5469 11.1506 32.9587 10.125 33.75 10.125C34.5412 10.125 35.9512 11.1581 37.3312 14.0625C40.1119 19.9331 39.8119 26.0212 37.92 28.875H29.5819C27.69 26.0287 27.39 19.9406 30.1725 14.0625H30.1687Z" fill="#103E13"/>
</svg>
